<svg width="135" height="136" viewBox="0 0 135 136" fill="none" xmlns="http://www.w3.org/2000/svg">
<path d="M43.1994 86.9479C52.0545 68.7904 56.4877 59.7116 62.8527 57.546C66.1488 56.4267 69.7182 56.4267 73.0144 57.546C79.3794 59.7116 83.8125 68.7904 92.6677 86.9479L97.5699 97.0167C99.859 101.702 100.998 104.048 101.272 105.645C102.394 112.277 97.5308 118.386 90.9648 118.583C89.3847 118.628 86.9169 117.947 81.9756 116.58C80.111 116.037 78.2304 115.551 76.3364 115.124C70.7908 113.992 65.0762 113.992 59.5306 115.124C58.1236 115.41 56.711 115.799 53.8914 116.586C48.9502 117.947 46.4824 118.628 44.9023 118.583C38.3419 118.386 33.4732 112.277 34.5954 105.645C34.8634 104.048 36.008 101.708 38.2972 97.011L43.1994 86.9479ZM35.2431 31.5473C37.5434 40.7217 44.0424 46.8304 49.7598 45.1935C55.4827 43.551 58.2576 34.7873 55.9573 25.6185C53.6569 16.4441 47.1579 10.3354 41.4406 11.9723C35.7177 13.6148 32.9428 22.3785 35.2431 31.5473ZM100.624 31.5473C98.3236 40.7217 91.8246 46.8304 86.1073 45.1935C80.3844 43.551 77.6094 34.7873 79.9098 25.6185C82.2101 16.4441 88.7091 10.3354 94.4264 11.9723C100.149 13.6148 102.924 22.3785 100.624 31.5473ZM13.228 69.6285C15.7405 76.4067 21.6477 80.5242 26.4214 78.8254C31.1952 77.1267 33.0265 70.2529 30.514 63.4691C28.0015 56.6966 22.0943 52.5792 17.3206 54.2779C12.5468 55.9767 10.7155 62.8504 13.228 69.6342V69.6285ZM122.639 69.6285C120.127 76.4067 114.219 80.5242 109.446 78.8254C104.672 77.1267 102.841 70.2529 105.353 63.4691C107.866 56.6966 113.773 52.5792 118.546 54.2779C123.32 55.9767 125.152 62.8504 122.639 69.6342V69.6285Z" fill="white"/>
</svg>
